<?xml version="1.0" encoding="utf-8"?>
<!-- Generator: Adobe Illustrator 21.1.0, SVG Export Plug-In . SVG Version: 6.00 Build 0)  -->
<svg version="1.1" id="Layer_1" xmlns="http://www.w3.org/2000/svg" xmlns:xlink="http://www.w3.org/1999/xlink" x="0px" y="0px"
	 viewBox="0 0 416 303" style="enable-background:new 0 0 416 303;" xml:space="preserve">
<style type="text/css">
	.st0{fill:#FFFFFF;}
	.st1{font-family:'Helvetica-Bold';}
	.st2{font-size:60px;}
	.st3{fill:#D7973F;}
	.st4{fill:none;stroke:#1D1D1B;stroke-width:5.000000e-02;stroke-miterlimit:10;}
	.st5{opacity:0.75;fill:#F29140;enable-background:new    ;}
	.st6{fill:#1D1D1B;}
	.st7{fill:none;stroke:#F9E92C;stroke-width:5.000000e-02;stroke-miterlimit:10;}
</style>
<title>Artboard 1</title>
<g id="Layer_6">
	<text transform="matrix(1 0 0 1 160.9 197.66)" class="st0 st1 st2">BUBBLE</text>
</g>
<g id="light">
	<path class="st3" d="M95.6,292.3h-7c0,0-6.2,1.2-8.3-5.6c-1.1-3.2-1.9-5.3-6-5.3c-1.9,0-10.6-2.5-10.6-15.9v-39.7
		c0,0,0.2-2.6-2.8-2.6h34.7 M95.6,292.3h7c0,0,6.2,1.2,8.3-5.6c1.1-3.2,1.9-5.3,6-5.3c1.9,0,10.6-2.5,10.6-15.9v-39.8
		c0,0-0.2-2.6,2.8-2.6H95.6"/>
	<path class="st4" d="M63.5,231.6c0,0,10.4-2.8,32.1-2.8 M127.7,231.6c0,0-10.4-2.8-32.1-2.8"/>
	<path class="st4" d="M63.5,239.3c0,0,10.4-2.8,32.1-2.8 M127.7,239.3c0,0-10.4-2.8-32.1-2.8"/>
	<path class="st4" d="M63.5,246.9c0,0,10.4-2.8,32.1-2.8 M127.7,246.9c0,0-10.4-2.8-32.1-2.8"/>
	<path class="st4" d="M63.5,254.6c0,0,10.4-2.8,32.1-2.8 M127.7,254.6c0,0-10.4-2.8-32.1-2.8"/>
	<path class="st4" d="M63.5,262.2c0,0,10.4-2.8,32.1-2.8 M127.7,262.2c0,0-10.4-2.8-32.1-2.8"/>
	<path class="st4" d="M63.9,269.9c0,0,10.3-2.8,31.7-2.8 M127.3,269.9c0,0-10.3-2.8-31.7-2.8"/>
	<path class="st4" d="M67.2,277.6c0,0,9.2-2.8,28.4-2.8 M124,277.6c0,0-9.2-2.8-28.4-2.8"/>
	<path class="st5" d="M93.9,9.5c64.2,0,85.9,49.3,85.9,80.8s-16.5,53.5-16.5,53.5c-4.9,6.7-25.2,38.9-25.2,54.5s-1.4,15-3.7,17.4
		c-4.5,4.1-5.8,7.5-5.8,7.5H61c0,0-1.4-3.4-5.8-7.5c-2.2-2.4-3.7-1.8-3.7-17.4s-20.3-47.8-25.2-54.5c0,0-16.5-22-16.5-53.4
		S31.4,9.5,95.6,9.5"/>
	<path class="st6" d="M95.6,292.3h7c0,0,6.2,1.2,8.3-5.6c1.1-3.2,1.9-5.3,6-5.3H74.3c4,0,4.9,2.1,6,5.3c2.1,6.8,8.3,5.6,8.3,5.6
		H95.6"/>
</g>
<g id="inside_lamp">
	<path class="st4" d="M87,223.1L87,223.1z M94.7,223.1L94.7,223.1z M102.3,223.1L102.3,223.1z M113.5,181.5
		c-7.7-2.5-11.2-2.4-11.2-2.4H87"/>
	<path class="st4" d="M74.8,52.3l20.8,1.3l-20.8,2.2 M82.2,46.8c0,0,3.2,6.1,13.4,6.7 M116.4,55.8l-20.8-2.2l20.8-1.3 M95.6,53.5
		c10.2-0.6,13.4-6.7,13.4-6.7"/>
</g>
<g id="in_3">
	<path class="st7" d="M116.4,52.3l-3,129.4l0.8-125.8l-2.1,125.3V52.7l-2.7,127.6l-0.2-125l-2.4,124.3V53.1L104.7,179l-1.3-124.3
		L100.7,179V53.5l-3,125.5V54l-2.1,125L94,53.6L92,179L90.9,53.5L88.8,179L87,53.3L85,179L83.3,55.2L81.8,179L79.7,52.5L78,179
		L76.3,56l-1.7,123l0.2-126.5 M113.4,181.7L109,46.8L94.6,179l1-125.2L87,179L82.2,46.8"/>
</g>
</svg>
