<?xml version="1.0" encoding="utf-8"?>
<!-- Generator: Adobe Illustrator 21.0.2, SVG Export Plug-In . SVG Version: 6.00 Build 0)  -->
<svg version="1.1" id="Layer_1" xmlns="http://www.w3.org/2000/svg" xmlns:xlink="http://www.w3.org/1999/xlink" x="0px" y="0px"
	 viewBox="0 0 278.4 279" style="enable-background:new 0 0 278.4 279;" xml:space="preserve">
<style type="text/css">
	.st0{fill:#4A4948;}
	.st1{fill:#FFFFFF;}
	.st2{fill:none;stroke:#FFFFFF;stroke-width:10;stroke-miterlimit:10;}
</style>
<circle class="st0" cx="139.2" cy="139.5" r="133.7"/>
<g>
	<path class="st1" d="M52.3,101.1c6.7,0,12.2,5.5,12.2,12.2c0,6.7-5.5,12.2-12.2,12.2s-12.2-5.5-12.2-12.2
		C40.1,106.6,45.6,101.1,52.3,101.1 M52.3,91.1c-12.2,0-22.2,10-22.2,22.2c0,12.2,10,22.2,22.2,22.2s22.2-10,22.2-22.2
		C74.5,101.1,64.5,91.1,52.3,91.1L52.3,91.1z"/>
</g>
<g>
	<path class="st1" d="M173.8,98.2c6.7,0,12.2,5.5,12.2,12.2c0,6.7-5.5,12.2-12.2,12.2c-6.7,0-12.2-5.5-12.2-12.2
		C161.6,103.7,167.1,98.2,173.8,98.2 M173.8,88.2c-12.2,0-22.2,10-22.2,22.2s10,22.2,22.2,22.2s22.2-10,22.2-22.2
		S186,88.2,173.8,88.2L173.8,88.2z"/>
</g>
<g>
	<path class="st1" d="M178.7,211.4c6.7,0,12.2,5.5,12.2,12.2s-5.5,12.2-12.2,12.2s-12.2-5.5-12.2-12.2S171.9,211.4,178.7,211.4
		 M178.7,201.4c-12.2,0-22.2,10-22.2,22.2s10,22.2,22.2,22.2s22.2-10,22.2-22.2S190.9,201.4,178.7,201.4L178.7,201.4z"/>
</g>
<g>
	<circle class="st1" cx="112" cy="49.1" r="12.2"/>
</g>
<g>
	<circle class="st1" cx="234.2" cy="171.6" r="12.2"/>
</g>
<line class="st2" x1="116.7" y1="53.8" x2="161.6" y2="98.2"/>
<line class="st2" x1="186" y1="122.6" x2="230.8" y2="167"/>
<path class="st2" d="M186,121c8.8,12.8,13.9,28.1,13.9,44.7c0,17.3-5.6,33.3-15.1,46.3"/>
<path class="st2" d="M63,104.7c14.2-11.9,32.6-19,52.7-19c17.6,0,33.8,5.5,47.1,14.7"/>
</svg>
