<?xml version="1.0" encoding="utf-8"?>
<!-- Generator: Adobe Illustrator 21.0.2, SVG Export Plug-In . SVG Version: 6.00 Build 0)  -->
<svg version="1.1" xmlns="http://www.w3.org/2000/svg" xmlns:xlink="http://www.w3.org/1999/xlink" x="0px" y="0px"
	 viewBox="0 0 278.4 279" style="enable-background:new 0 0 278.4 279;" xml:space="preserve">
<style type="text/css">
	.st0{fill:#4A4948;}
	.st1{fill:#FFFFFF;}
	.st2{fill:none;stroke:#FFFFFF;stroke-width:5;stroke-miterlimit:10;}
</style>
<g id="Layer_1">
	<circle class="st0" cx="139.2" cy="139.5" r="133.7"/>
</g>
<g id="Layer_3">
	<path class="st1" d="M183.5,109.5c-24.8,0-44.9,20.1-44.9,44.9s20.1,44.9,44.9,44.9s44.9-20.1,44.9-44.9S208.3,109.5,183.5,109.5z
		 M197.2,176c-5.4,0-9.7-3.6-9.7-8c0-4.4,4.3-8,9.7-8c1.5,0,2.9,0.3,4.2,0.8l0-2.3v-19.8l-28.6,2.6v30.9c0,4.3-4.2,7.9-9.5,7.9
		s-9.5-3.5-9.5-7.9s4.2-7.9,9.5-7.9c1.5,0,2.9,0.3,4.1,0.8c0,0,0,0,0,0v-33.5l38.8-4.6v38.2c0.4,0.9,0.6,1.8,0.6,2.8
		C206.9,172.4,202.5,176,197.2,176z"/>
	<path class="st1" d="M112.3,131.7v6.2h-48v-31.7h25.2v-6.8H47.5v83.8h82.1v-51.6H112.3z M58.6,178.5h-5.6c-1.4,0-2.5-1.1-2.5-2.5
		c0-1.4,1.1-2.5,2.5-2.5h5.6c1.4,0,2.5,1.1,2.5,2.5C61.1,177.3,60,178.5,58.6,178.5z M58.6,166.6h-5.6c-1.4,0-2.5-1.1-2.5-2.5
		c0-1.4,1.1-2.5,2.5-2.5h5.6c1.4,0,2.5,1.1,2.5,2.5C61.1,165.5,60,166.6,58.6,166.6z M58.6,154.8h-5.6c-1.4,0-2.5-1.1-2.5-2.5
		c0-1.4,1.1-2.5,2.5-2.5h5.6c1.4,0,2.5,1.1,2.5,2.5C61.1,153.6,60,154.8,58.6,154.8z M58.6,142.9h-5.6c-1.4,0-2.5-1.1-2.5-2.5
		c0-1.4,1.1-2.5,2.5-2.5h5.6c1.4,0,2.5,1.1,2.5,2.5C61.1,141.8,60,142.9,58.6,142.9z M58.6,131.1h-5.6c-1.4,0-2.5-1.1-2.5-2.5
		c0-1.4,1.1-2.5,2.5-2.5h5.6c1.4,0,2.5,1.1,2.5,2.5C61.1,129.9,60,131.1,58.6,131.1z M58.6,119.2h-5.6c-1.4,0-2.5-1.1-2.5-2.5
		c0-1.4,1.1-2.5,2.5-2.5h5.6c1.4,0,2.5,1.1,2.5,2.5C61.1,118.1,60,119.2,58.6,119.2z M58.6,107.4h-5.6c-1.4,0-2.5-1.1-2.5-2.5
		c0-1.4,1.1-2.5,2.5-2.5h5.6c1.4,0,2.5,1.1,2.5,2.5C61.1,106.2,60,107.4,58.6,107.4z M112.3,176.4h-48v-32.8h48V176.4z M124.9,178.5
		h-5.6c-1.4,0-2.5-1.1-2.5-2.5c0-1.4,1.1-2.5,2.5-2.5h5.6c1.4,0,2.5,1.1,2.5,2.5C127.5,177.3,126.3,178.5,124.9,178.5z M124.9,166.6
		h-5.6c-1.4,0-2.5-1.1-2.5-2.5c0-1.4,1.1-2.5,2.5-2.5h5.6c1.4,0,2.5,1.1,2.5,2.5C127.5,165.5,126.3,166.6,124.9,166.6z M124.9,154.8
		h-5.6c-1.4,0-2.5-1.1-2.5-2.5c0-1.4,1.1-2.5,2.5-2.5h5.6c1.4,0,2.5,1.1,2.5,2.5C127.5,153.6,126.3,154.8,124.9,154.8z M124.9,142.9
		h-5.6c-1.4,0-2.5-1.1-2.5-2.5c0-1.4,1.1-2.5,2.5-2.5h5.6c1.4,0,2.5,1.1,2.5,2.5C127.5,141.8,126.3,142.9,124.9,142.9z"/>
	<polyline class="st2" points="143.2,126.9 94.6,126.9 94.6,72.4 178.1,72.4 178.1,105.9 178.1,126.9 	"/>
	<circle class="st1" cx="116.5" cy="89" r="8.6"/>
	<path class="st1" d="M109.7,117.1l15.4-15.1l10.1,5.6L147,90.5l13.3,21.3c0,0-5.9,2.1-7.1,5.3C109.7,117.1,109.7,117.1,109.7,117.1
		z"/>
</g>
</svg>
