<svg id="Layer_1" xmlns="http://www.w3.org/2000/svg" viewBox="0 0 416 303"><style>.st0{font-family:&apos;Helvetica-Bold&apos;}.st1{font-size:60px}.st2{fill:#d7973f}.st3{fill:none;stroke:#1d1d1b;stroke-width:5e-2;stroke-miterlimit:10}.st4{opacity:.75;fill:#f29140;enable-background:new}.st5{fill:#1d1d1b}.st6{fill:none;stroke:#f9e92c;stroke-width:5e-2;stroke-miterlimit:10}</style><title>Artboard 1</title><text transform="translate(160.9 197.66)" class="st0 st1" id="Layer_6">BUBBLE</text><g id="light"><path class="st2" d="M95.6 292.3h-7s-6.2 1.2-8.3-5.6c-1.1-3.2-1.9-5.3-6-5.3-1.9 0-10.6-2.5-10.6-15.9v-39.7s.2-2.6-2.8-2.6h34.7m0 69.1h7s6.2 1.2 8.3-5.6c1.1-3.2 1.9-5.3 6-5.3 1.9 0 10.6-2.5 10.6-15.9v-39.8s-.2-2.6 2.8-2.6H95.6"/><path class="st3" d="M63.5 231.6s10.4-2.8 32.1-2.8m32.1 2.8s-10.4-2.8-32.1-2.8M63.5 239.3s10.4-2.8 32.1-2.8m32.1 2.8s-10.4-2.8-32.1-2.8M63.5 246.9s10.4-2.8 32.1-2.8m32.1 2.8s-10.4-2.8-32.1-2.8M63.5 254.6s10.4-2.8 32.1-2.8m32.1 2.8s-10.4-2.8-32.1-2.8M63.5 262.2s10.4-2.8 32.1-2.8m32.1 2.8s-10.4-2.8-32.1-2.8M63.9 269.9s10.3-2.8 31.7-2.8m31.7 2.8s-10.3-2.8-31.7-2.8M67.2 277.6s9.2-2.8 28.4-2.8m28.4 2.8s-9.2-2.8-28.4-2.8"/><path class="st4" d="M93.9 9.5c64.2 0 85.9 49.3 85.9 80.8s-16.5 53.5-16.5 53.5c-4.9 6.7-25.2 38.9-25.2 54.5s-1.4 15-3.7 17.4c-4.5 4.1-5.8 7.5-5.8 7.5H61s-1.4-3.4-5.8-7.5c-2.2-2.4-3.7-1.8-3.7-17.4s-20.3-47.8-25.2-54.5c0 0-16.5-22-16.5-53.4S31.4 9.5 95.6 9.5"/><path class="st5" d="M95.6 292.3h7s6.2 1.2 8.3-5.6c1.1-3.2 1.9-5.3 6-5.3H74.3c4 0 4.9 2.1 6 5.3 2.1 6.8 8.3 5.6 8.3 5.6h7"/></g><g id="inside_lamp"><path class="st3" d="M87 223.1zm7.7 0zm7.6 0zm11.2-41.6c-7.7-2.5-11.2-2.4-11.2-2.4H87M74.8 52.3l20.8 1.3-20.8 2.2m7.4-9s3.2 6.1 13.4 6.7m20.8 2.3l-20.8-2.2 20.8-1.3m-20.8 1.2c10.2-.6 13.4-6.7 13.4-6.7"/></g><path class="st6" d="M116.4 52.3l-3 129.4.8-125.8-2.1 125.3V52.7l-2.7 127.6-.2-125-2.4 124.3V53.1L104.7 179l-1.3-124.3-2.7 124.3V53.5l-3 125.5V54l-2.1 125L94 53.6 92 179 90.9 53.5 88.8 179 87 53.3 85 179 83.3 55.2 81.8 179 79.7 52.5 78 179 76.3 56l-1.7 123 .2-126.5m38.6 129.2L109 46.8 94.6 179l1-125.2L87 179 82.2 46.8" id="in_3"/></svg>