<svg xmlns="http://www.w3.org/2000/svg" viewBox="0 0 261.4 190.3"><style>.st0{fill:#fff8f4}.st1,.st2,.st3,.st4{stroke-width:.25;stroke-miterlimit:10}.st1{stroke-dasharray:2;fill:none;stroke:#a5a4a3}.st2,.st3,.st4{fill:#fff;stroke:#ffe601}.st3,.st4{fill:none}.st4{stroke-dasharray:1}.st5{fill:#45a1da}.st6{fill:none;stroke:#1d1d1b;stroke-width:.25;stroke-miterlimit:10}.st7{stroke-dasharray:6}.st7,.st8{fill:none;stroke:#333;stroke-width:.25;stroke-miterlimit:10}.st9{fill:#202223}</style><path class="st0" d="M0 0h261.4v190.2H0z" id="Layer_2_1_"/><g id="Layer_1"><title>Asset 2</title><g id="Layer_2"><path class="st1" d="M238.3 68.7C242 77 244 86 244 95.1c0 45.3-48.7 82-108.9 82-17 .1-34-3-49.9-9.1-35-13.6-59-41.2-59-72.9 0-45.3 48.7-82 108.9-82 27.4 0 52.4 7.6 71.6 20.2" id="Layer_2-2"/><g id="sun"><path class="st2" d="M206 34l-.1.3-.1.4c-.1.4-.2.8-.4 1.1s-.2.6-.3.9-.2.6-.2 1-.1.5-.2.8-.1.8-.2 1.2-.1.7-.1 1-.1.7-.1 1v3c0 .3 0 .7.1 1s0 .5.1.8.1.8.2 1.2.1.6.2 1 .1.6.2 1 .1.5.2.8.2.8.3 1.1l.3.9c.1.3.2.6.4.9s.2.5.3.7.3.7.5 1 .3.6.4.9.3.6.5.8.3.4.4.7.4.7.6 1l.6.8c.2.3.4.5.6.8.2.2.3.4.5.6s.5.6.8.9.4.5.7.7.4.5.7.7l.6.5c.3.2.6.5.9.7s.5.4.8.6.5.4.8.6l.6.4c.3.2.6.4 1 .6l.8.5.6.1.7.3c.3.2.7.3 1 .4l.9.3.3.1.6.2.7.2 1.1.3.9.2.9.2.7.1c.4.1.7.1 1.1.2s.6.1.9.1l.9.1h2.7l.9-.1.7-.1 1.1-.2.9-.2.9-.2.7-.2 1-.3.8-.3.6-.1.6-.2 1-.4c.3-.1.5-.2.8-.4l.8-.4.6-.3.9-.6.7-.5.7-.5.5-.4.1-.1c.2-.2.4-.4.7-.5s.5-.5.8-.7l.5-.5.6-.6.6-.6c.2-.3.5-.5.7-.8l.4-.5c.2-.2.4-.4.5-.7s.3-.5.5-.7.4-.6.6-.9l.4-.6c.1-.2.3-.5.4-.7s.3-.5.4-.8.3-.6.5-.9.2-.4.3-.6.2-.5.3-.8.2-.5.3-.8l.1-.2c.1-.2.2-.5.2-.8s.1-.4.2-.6.2-.5.2-.8.1-.6.2-.8.1-.7.2-1 .1-.4.1-.7.1-.6.1-.8.1-.6.1-.8.1-.7.1-1.1v-.7-.9-.9c0-.3 0-.7-.1-1.1s0-.4 0-.7-.1-.6-.1-.8-.1-.6-.1-.9-.1-.7-.2-1-.1-.4-.1-.7-.1-.6-.2-.8-.2-.5-.2-.8-.2-.7-.3-1-.1-.4-.2-.6-.2-.5-.3-.8-.2-.5-.4-.8-.3-.6-.5-1l-.3-.6-.4-.8c-.1-.3-.3-.5-.5-.8l-.6-.9-.4-.6c-.2-.2-.4-.5-.5-.7s-.4-.5-.6-.7-.5-.5-.7-.8-.3-.3-.5-.5l-.6-.6-.6-.6c-.2-.2-.6-.5-.8-.7l-.6-.4c-.2-.2-.5-.4-.7-.5l-.7-.5-.9-.6-.6-.4-.8-.5-.8-.4c-.3-.2-.7-.3-1-.5l-.7-.3-.9-.3-.3-.1-.6-.2c-.4-.1-.7-.2-1.1-.3l-.7-.2-.9-.2-.9-.2c-.4-.1-.7-.1-1.1-.2l-.7-.1-.9-.1h-2.7l-.9.1c-.3 0-.6 0-.9.1s-.8.1-1.1.1l-.7.1-.9.2-.9.2c-.4.1-.7.2-1.1.3l-.7.2-.9.3-.9.4-1.1.5-.7.3-.9.5c-.3.2-.6.3-.8.5l-.8.5-.2.1-.6.4-.6.5-.9.7c-.2.2-.5.4-.7.6l-.7.7-.6.5c-.3.3-.5.6-.8.9s-.4.5-.6.7-.4.5-.6.8-.3.4-.5.6-.4.6-.7 1-.4.5-.5.8-.3.6-.5.9-.2.5-.4.7-.4.7-.5 1.1-.3.6-.4.9-.7.4-.8.7z"/><path class="st3" d="M246.8 64l7.3 10.2M259.4 84.4L247 65.8l-.9-1.3M252 75.6l-5.8-9.3-.8-1.3M261.3 94.7l-15.9-28-.7-1.2"/><path class="st4" d="M257.7 92.6l-13.3-25.3-.6-1.3"/><path class="st3" d="M253.5 87.8l-9.7-20.2-.6-1.2M247.3 78l-4.4-10-.5-1.2M253.9 98.2l-11.8-29.9-.5-1.2M250.6 95.6l-9.5-26.9-.5-1.1M247.1 90.3L240.4 69l-.4-1.2"/><path class="st4" d="M242.4 79.8l-2.9-10.6-.3-1.1"/><path class="st3" d="M246.1 100.7l-7.5-31.2-.3-1.1M243.2 97.6l-5.7-27.9-.2-1M240.5 91.9l-3.7-22.1-.2-.9M237.3 80.8L235.9 70l-.1-1M238.1 102L235 70.1l-.1-.9M235.6 98.6l-1.8-28.4v-.8"/><path class="st4" d="M233.8 92.6l-.7-22.4v-.8"/><path class="st3" d="M232.1 81.2l.1-11v-.7M229.9 102.3l1.4-32.1v-.7M228 98.5l2.1-28.4.1-.6M226.9 92.3l2.5-22.3.1-.5M226.9 80.8l1.6-10.9.1-.4"/><path class="st4" d="M221.8 101.3l5.8-31.5.1-.4"/><path class="st3" d="M220.4 97.4l6.1-27.8.1-.4M220.2 91.1l5.6-21.7.1-.3M221.8 79.7l3.1-10.6.1-.2M213.9 99.3l10.2-30.4v-.2M213.1 95.2l9.9-26.7v-.1M213.8 88.9l8.5-20.7"/><path class="st4" d="M216.9 77.8l4.6-9.9"/><path class="st3" d="M206.4 96.2l14.2-28.7M206.1 92l13.5-24.9M207.7 85.9l11.2-19.1M212.4 75.4l5.7-9M199.3 92.1l18-26.2M199.6 87.9l16.7-22.6M202.1 82.1l13.6-17.2M208.2 72.3l6.7-8M192.9 87l21.3-23.2M193.8 82.9L213.3 63M197 77.5l15.7-15"/><path class="st4" d="M204.4 68.6l7.7-6.7"/><path class="st3" d="M187.3 81.1l24.1-19.9M188.8 77.2l21.8-16.9M192.7 72.2l17.4-12.5M201.2 64.5l8.4-5.5M182.6 74.5L209 58.2"/><path class="st4" d="M184.5 70.8l23.9-13.6"/><path class="st3" d="M189.1 66.4l18.9-9.8M198.7 60l8.8-4.3M178.8 67.2L207 54.9M181.2 63.9l25.4-10.1M186.4 60.2l19.8-7.1M196.8 55.1l9.1-2.9M176 59.6l29.6-8.3M178.9 56.6l26.3-6.4M202.6 5.2l12.8 16.6"/><path class="st4" d="M184.6 53.6l20.5-4.2"/><path class="st3" d="M197.5 1.4l17.2 20.8M195.5 50.1l9.3-1.6M193.5.1l20.3 22.8M174.4 51.6l30.3-4.1"/><path class="st4" d="M206.6 16.8l6.5 6.8"/><path class="st3" d="M177.7 49l26.8-2.7M197.5 9.7l14.9 14.5M183.7 46.9l20.7-1.3M191.9 6.6l19.9 18.2"/><path class="st4" d="M195 44.9l9.3-.3"/><path class="st3" d="M187.8 5.9L211 25.6M173.9 43.4l30.4.2M203.1 20.6l7.3 5.8M177.5 41.3l26.8 1.1"/><path class="st4" d="M193.1 14.9l16.7 12.2"/><path class="st3" d="M183.7 40.1l20.7 1.6M187.1 12.6l22.2 15.2M195.2 39.7l9.2 1M183 12.5l25.6 16.3M174.5 35.3l30 4.4"/><path class="st4" d="M200.1 24.9l8 4.7"/><path class="st3" d="M178.4 33.7l26.3 4.8M189.4 20.6l18.2 9.8"/><path class="st4" d="M184.7 33.3l20.2 4.5"/><path class="st3" d="M183.2 19.2l24 11.9M196.2 34.5l8.9 2.3M179.1 19.7l27.6 12.5M176.2 27.3l29.2 8.6"/><path class="st4" d="M197.8 29.6l8.5 3.5"/><path class="st3" d="M186.6 26.8L206 34M180.3 26.3l25.4 8.4"/></g><g id="earth"><ellipse class="st5" cx="49.1" cy="139.8" rx="45.5" ry="46.5"/><path class="st6" d="M23.9 178.5s42.5 17.9 70.6-34.6c0 0-8.1-37.2-62.8-33.5"/><path class="st6" d="M82.8 171.1c-11.5 8.8-25.3 14-39.8 14.8 0 0-32.6-16.5-11.4-75.5 0 0-33.2 41.7-2.8 71.1"/><path class="st6" d="M89.7 118.8C84.5 152.7 54.6 161 49 162.6c-29.5 11.1-43.8-9.9-43.8-9.9S1 125.6 31.5 110.4c0 0-31.3 22.4-20.4 55.2 0 0 19.8 18.7 57.2 0 4-2.1 19.3-10.2 24.8-36.9"/><path class="st6" d="M3.5 136.8s4.9 26.4 41.8 14.6c4.7-1.4 32.7-6.6 37.5-42.8"/><path class="st6" d="M6.2 123.9s-1 21.2 26.9 18.4c4.6-.6 45.3-7.8 36.9-43.8"/><path class="st6" d="M57.3 94.1c8.2 31.6-21.8 36.3-26.3 37.4-21.2 3.9-18-20-18-20"/><path class="st6" d="M53.4 186.3s-27.3-16.9-21.8-75.9c0 0 13 56 31.5 73.6M71.2 180.4s-31-64.2-39.6-70c0 0 20.6 8.9 51.2 60.6"/><path class="st6" d="M82.8 154.4c-14.9-32.4-51.2-44-51.2-44s56.1 6.3 60 46M87.8 115.6c-39-14.1-56.2-5.2-56.2-5.2s29-10.2 38.5-11.8"/><path class="st6" d="M61.6 95.1c-5.6 2.5-30 15.3-30 15.3S45.9 98 57.3 94.1"/><path class="st6" d="M3.5 133.4s8.1-20.3 28.1-23c0 0 14.2-17.2 17.5-17.1"/><path class="st6" d="M7.6 120.6s11.5-11.4 24-10.2c0 0-3.6-3.4-16.3-1.9"/><path class="st6" d="M19.6 104.6c5.5.3 12 5.8 12 5.8s2-1.4-7.7-9.2"/><path class="st6" d="M28.3 98.6c2.8 2.9 3.3 11.8 3.3 11.8s2.8-9 0-13.4M31.6 110.4s6.9-11.3 5.5-15.3"/><path class="st7" d="M3.5 118.4s-18.8 49.4 32.3 70c0 0 57.5 16.1 61.3-48.6-.7-5.5.3-27.8-22.4-42.8-3.3-1.5-23.4-13.7-52.6 0"/><circle class="st8" cx="19" cy="99.6" r="2.5"/><circle class="st8" cx="97.4" cy="129.7" r="2"/><circle class="st8" cx="97.4" cy="125.5" r="1.5"/><circle class="st8" cx="97.1" cy="121.8" r="1.2"/><circle class="st8" cx="15.2" cy="103.4" r="1.7"/><circle class="st8" cx="12.2" cy="106.5" r=".9"/><path class="st9" d="M11.2 127.3s6-8.3 9.4-8.5c2.8.8 1.8 4.2 1.8 4.2 3.7-.4 6.5 1.5 6.1 4.2 2.1-.3-2.1-6.2-1.2-8.5 2.5 1.7 15.8-10.8 21.7-5.8 2.2 3.6 6.4 11.3-1.5 7.6-3.9-2.8-10.7-6.6-10.1-1.8 2.5 1.1 10.2 2 5.7 6.3 3.1.9 8.4 1.4 10.9 3.6 2.5.4 3.1 1.9 0 3.1 1.4 2.5-1.4 7.8-1.8 7.9-1 1.9-2.7 9.9 0 11.6-1.3.5-12.3 2.6-9.3 5.7 1.2 3.4 5.1 3.4 6.1 0 2.5 0 6.4 3.6 3.2 4.6 4.5.3 5.1 3.1 10.6-2.5 6.2-1.8 7.8-5.2 11.4-2.8 3.4-1.8 8-4.7 8.5-2.1l5.3-3.8s2.8 8.8 0 13.1c-12.3 14.6-13 12.9-14.7 10.2-3.2-1.6-4.1-.6-10.5-2.9-.9-2.5 2.5-8.8-7-5.4-1.8-.9-3-4.3-6.8-3-7.9.5-26.7-4.7-26.7-16.7.8-3.8.3-8-2.5-9.8 0-3.7-.9-10-5.2-7.4l-3.4-1.1z"/><path class="st9" d="M10.1 115.6s4.9 1.7 5.1 3.2c3.5-2.6 5.1-11.8 10.6-12.6 1.8-2.2 15.8-9.8 21.6-6.1.7 2.9 2.4 3.7 1.5 4.7 3.6 0 14.7 0 15.9 2.7-1.6 1.2-8.4 0-3.7 3.3s6.6 1.2 7.4 1.1c2.2 1 4.7 6 8.4 4 2.1 2.2 3.7 4.7 4.7 7.6 2.5 3.7 7.1 6.4 9.8 8.1 5.8 3.6-3.2-35.1-39.3-38-4.6-.1-14.9-.3-25.7 6.1-.9.5-1.8 1.1-2.6 1.7-5.4 3.8-10.1 8.6-13.7 14.2z"/></g></g></g></svg>