<svg id="Layer_1" xmlns="http://www.w3.org/2000/svg" viewBox="0 0 278.4 279"><style>.st0,.st1{fill:#ededed}.st1{stroke:#fff;stroke-width:5;stroke-miterlimit:10}</style><path class="st0" d="M183.5 109.5c-24.8 0-44.9 20.1-44.9 44.9s20.1 44.9 44.9 44.9 44.9-20.1 44.9-44.9-20.1-44.9-44.9-44.9zm13.7 66.5c-5.4 0-9.7-3.6-9.7-8s4.3-8 9.7-8c1.5 0 2.9.3 4.2.8v-22.1l-28.6 2.6v30.9c0 4.3-4.2 7.9-9.5 7.9s-9.5-3.5-9.5-7.9 4.2-7.9 9.5-7.9c1.5 0 2.9.3 4.1.8v-33.5l38.8-4.6v38.2c.4.9.6 1.8.6 2.8.1 4.4-4.3 8-9.6 8zm-84.9-44.3v6.2h-48v-31.7h25.2v-6.8h-42v83.8h82.1v-51.6l-17.3.1zm-53.7 46.8H53c-1.4 0-2.5-1.1-2.5-2.5s1.1-2.5 2.5-2.5h5.6c1.4 0 2.5 1.1 2.5 2.5 0 1.3-1.1 2.5-2.5 2.5zm0-11.9H53c-1.4 0-2.5-1.1-2.5-2.5s1.1-2.5 2.5-2.5h5.6c1.4 0 2.5 1.1 2.5 2.5s-1.1 2.5-2.5 2.5zm0-11.8H53c-1.4 0-2.5-1.1-2.5-2.5s1.1-2.5 2.5-2.5h5.6c1.4 0 2.5 1.1 2.5 2.5 0 1.3-1.1 2.5-2.5 2.5zm0-11.9H53c-1.4 0-2.5-1.1-2.5-2.5s1.1-2.5 2.5-2.5h5.6c1.4 0 2.5 1.1 2.5 2.5s-1.1 2.5-2.5 2.5zm0-11.8H53c-1.4 0-2.5-1.1-2.5-2.5s1.1-2.5 2.5-2.5h5.6c1.4 0 2.5 1.1 2.5 2.5 0 1.3-1.1 2.5-2.5 2.5zm0-11.9H53c-1.4 0-2.5-1.1-2.5-2.5s1.1-2.5 2.5-2.5h5.6c1.4 0 2.5 1.1 2.5 2.5s-1.1 2.5-2.5 2.5zm0-11.8H53c-1.4 0-2.5-1.1-2.5-2.5s1.1-2.5 2.5-2.5h5.6c1.4 0 2.5 1.1 2.5 2.5 0 1.3-1.1 2.5-2.5 2.5zm53.7 69h-48v-32.8h48v32.8zm12.6 2.1h-5.6c-1.4 0-2.5-1.1-2.5-2.5s1.1-2.5 2.5-2.5h5.6c1.4 0 2.5 1.1 2.5 2.5.1 1.3-1.1 2.5-2.5 2.5zm0-11.9h-5.6c-1.4 0-2.5-1.1-2.5-2.5s1.1-2.5 2.5-2.5h5.6c1.4 0 2.5 1.1 2.5 2.5.1 1.4-1.1 2.5-2.5 2.5zm0-11.8h-5.6c-1.4 0-2.5-1.1-2.5-2.5s1.1-2.5 2.5-2.5h5.6c1.4 0 2.5 1.1 2.5 2.5.1 1.3-1.1 2.5-2.5 2.5zm0-11.9h-5.6c-1.4 0-2.5-1.1-2.5-2.5s1.1-2.5 2.5-2.5h5.6c1.4 0 2.5 1.1 2.5 2.5.1 1.4-1.1 2.5-2.5 2.5z"/><path class="st1" d="M143.2 126.9H94.6V72.4h83.5v54.5"/><circle class="st0" cx="116.5" cy="89" r="8.6"/><path class="st0" d="M109.7 117.1l15.4-15.1 10.1 5.6L147 90.5l13.3 21.3s-5.9 2.1-7.1 5.3h-43.5z"/></svg>